<svg width="159" height="42" viewBox="0 0 159 42" fill="none" xmlns="http://www.w3.org/2000/svg">
<path d="M22.0246 33.1115C22.0606 29.4401 21.1298 26.4545 19.9458 26.4429C18.7617 26.4314 17.7727 29.3983 17.7369 33.0696C17.701 36.7411 18.6318 39.7267 19.8158 39.7383C20.9998 39.7499 21.9888 36.783 22.0246 33.1115Z" fill="#FED700"/>
<path d="M15.1576 32.2777C17.1728 29.2086 18.0041 26.1937 17.0144 25.5438C16.0245 24.8939 13.5884 26.855 11.5732 29.9241C9.55797 32.9933 8.72669 36.0081 9.71645 36.6581C10.7063 37.308 13.1423 35.3469 15.1576 32.2777Z" fill="#FED700"/>
<path d="M9.82334 27.8744C13.1781 26.3822 15.5074 24.2955 15.0261 23.2136C14.5449 22.1316 11.4353 22.4643 8.08062 23.9565C4.72593 25.4487 2.39655 27.5354 2.87779 28.6173C3.35902 29.6992 6.46865 29.3666 9.82334 27.8744Z" fill="#FED700"/>
<path d="M14.6235 20.1795C14.8037 19.0092 12.0079 17.6076 8.37911 17.0491C4.75022 16.4905 1.66243 16.9865 1.4823 18.1568C1.30217 19.3272 4.09791 20.7286 7.72678 21.2872C11.3556 21.8457 14.4434 21.3497 14.6235 20.1795Z" fill="#FED700"/>
<path d="M15.9264 17.3917C16.7106 16.5045 15.116 13.8142 12.3649 11.3827C9.61375 8.9513 6.74784 7.6995 5.9637 8.58674C5.17956 9.47401 6.77412 12.1643 9.52527 14.5958C12.2764 17.0272 15.1423 18.279 15.9264 17.3917Z" fill="#FED700"/>
<path d="M18.5211 15.7623C19.6605 15.4399 19.7737 12.3146 18.774 8.7817C17.7743 5.24883 16.0402 2.64624 14.9009 2.96865C13.7615 3.29106 13.6483 6.41637 14.648 9.94927C15.6477 13.4821 17.3818 16.0847 18.5211 15.7623Z" fill="#FED700"/>
<path d="M25.5667 10.0592C26.6359 6.54673 26.5844 3.41979 25.4516 3.07498C24.3188 2.73017 22.5338 5.29805 21.4646 8.81053C20.3954 12.323 20.447 15.4499 21.5798 15.7947C22.7126 16.1395 24.4976 13.5717 25.5667 10.0592Z" fill="#FED700"/>
<path d="M30.6011 14.8053C33.3993 12.4281 35.0462 9.76948 34.2795 8.8671C33.5128 7.9647 30.623 9.16028 27.8249 11.5374C25.0267 13.9146 23.3799 16.5732 24.1466 17.4756C24.9132 18.378 27.8031 17.1825 30.6011 14.8053Z" fill="#FED700"/>
<path d="M32.2658 21.5215C35.905 21.0347 38.7278 19.6886 38.5707 18.5149C38.4138 17.3413 35.3363 16.7846 31.6971 17.2714C28.058 17.7583 25.2351 19.1043 25.3922 20.278C25.5492 21.4516 28.6266 22.0084 32.2658 21.5215Z" fill="#FED700"/>
<path d="M36.9603 28.9528C37.4628 27.8806 35.175 25.7484 31.8504 24.1903C28.5258 22.6322 25.4234 22.2384 24.9209 23.3105C24.4184 24.3828 26.7062 26.515 30.0308 28.0731C33.3554 29.6311 36.4579 30.025 36.9603 28.9528Z" fill="#FED700"/>
<path d="M29.9671 36.864C30.9695 36.2338 30.1978 33.203 28.2435 30.0948C26.2892 26.9866 23.8922 24.9778 22.8898 25.6081C21.8874 26.2383 22.6591 29.269 24.6134 32.3773C26.5678 35.4855 28.9647 37.4943 29.9671 36.864Z" fill="#FED700"/>
<path d="M50.116 13.752C49.276 13.752 48.5853 13.5093 48.044 13.024C47.5213 12.52 47.26 11.904 47.26 11.176C47.26 10.4293 47.5213 9.81333 48.044 9.328C48.5853 8.824 49.276 8.572 50.116 8.572C50.9373 8.572 51.6093 8.824 52.132 9.328C52.6733 9.81333 52.944 10.4293 52.944 11.176C52.944 11.904 52.6733 12.52 52.132 13.024C51.6093 13.5093 50.9373 13.752 50.116 13.752ZM52.524 33.016C52.524 34.9387 52.0387 36.32 51.068 37.16C50.0973 38.0187 48.744 38.448 47.008 38.448H45.132V34.388H46.28C46.8027 34.388 47.176 34.2853 47.4 34.08C47.624 33.8747 47.736 33.5387 47.736 33.072V15.376H52.524V33.016ZM71.3945 15.376V31H66.6065V28.872C66.1211 29.5627 65.4585 30.1227 64.6185 30.552C63.7971 30.9627 62.8825 31.168 61.8745 31.168C60.6798 31.168 59.6251 30.9067 58.7105 30.384C57.7958 29.8427 57.0865 29.068 56.5825 28.06C56.0785 27.052 55.8265 25.8667 55.8265 24.504V15.376H60.5865V23.86C60.5865 24.9053 60.8571 25.7173 61.3985 26.296C61.9398 26.8747 62.6678 27.164 63.5825 27.164C64.5158 27.164 65.2531 26.8747 65.7945 26.296C66.3358 25.7173 66.6065 24.9053 66.6065 23.86V15.376H71.3945ZM79.6217 17.588C80.0697 16.86 80.7137 16.272 81.5537 15.824C82.3937 15.376 83.355 15.152 84.4377 15.152C85.7257 15.152 86.8923 15.4787 87.9377 16.132C88.983 16.7853 89.8043 17.7187 90.4017 18.932C91.0177 20.1453 91.3257 21.5547 91.3257 23.16C91.3257 24.7653 91.0177 26.184 90.4017 27.416C89.8043 28.6293 88.983 29.572 87.9377 30.244C86.8923 30.8973 85.7257 31.224 84.4377 31.224C83.3363 31.224 82.375 31.0093 81.5537 30.58C80.7323 30.132 80.0883 29.544 79.6217 28.816V31H74.8337V10.28H79.6217V17.588ZM86.4537 23.16C86.4537 21.9653 86.1177 21.032 85.4457 20.36C84.7923 19.6693 83.9803 19.324 83.0097 19.324C82.0577 19.324 81.2457 19.6693 80.5737 20.36C79.9203 21.0507 79.5937 21.9933 79.5937 23.188C79.5937 24.3827 79.9203 25.3253 80.5737 26.016C81.2457 26.7067 82.0577 27.052 83.0097 27.052C83.9617 27.052 84.7737 26.7067 85.4457 26.016C86.1177 25.3067 86.4537 24.3547 86.4537 23.16ZM108.566 22.936C108.566 23.384 108.538 23.8507 108.482 24.336H97.6456C97.7202 25.3067 98.0282 26.0533 98.5696 26.576C99.1296 27.08 99.8109 27.332 100.614 27.332C101.808 27.332 102.639 26.828 103.106 25.82H108.202C107.94 26.8467 107.464 27.7707 106.774 28.592C106.102 29.4133 105.252 30.0573 104.226 30.524C103.199 30.9907 102.051 31.224 100.782 31.224C99.2509 31.224 97.8882 30.8973 96.6936 30.244C95.4989 29.5907 94.5656 28.6573 93.8936 27.444C93.2216 26.2307 92.8856 24.812 92.8856 23.188C92.8856 21.564 93.2122 20.1453 93.8656 18.932C94.5376 17.7187 95.4709 16.7853 96.6656 16.132C97.8602 15.4787 99.2322 15.152 100.782 15.152C102.294 15.152 103.638 15.4693 104.814 16.104C105.99 16.7387 106.904 17.644 107.558 18.82C108.23 19.996 108.566 21.368 108.566 22.936ZM103.666 21.676C103.666 20.8547 103.386 20.2013 102.826 19.716C102.266 19.2307 101.566 18.988 100.726 18.988C99.9229 18.988 99.2416 19.2213 98.6816 19.688C98.1402 20.1547 97.8042 20.8173 97.6736 21.676H103.666ZM115.879 10.28V31H111.091V10.28H115.879ZM125.705 31.224C124.343 31.224 123.129 30.9907 122.065 30.524C121.001 30.0573 120.161 29.4227 119.545 28.62C118.929 27.7987 118.584 26.884 118.509 25.876H123.241C123.297 26.4173 123.549 26.856 123.997 27.192C124.445 27.528 124.996 27.696 125.649 27.696C126.247 27.696 126.704 27.584 127.021 27.36C127.357 27.1173 127.525 26.8093 127.525 26.436C127.525 25.988 127.292 25.6613 126.825 25.456C126.359 25.232 125.603 24.9893 124.557 24.728C123.437 24.4667 122.504 24.196 121.757 23.916C121.011 23.6173 120.367 23.16 119.825 22.544C119.284 21.9093 119.013 21.06 119.013 19.996C119.013 19.1 119.256 18.288 119.741 17.56C120.245 16.8133 120.973 16.2253 121.925 15.796C122.896 15.3667 124.044 15.152 125.369 15.152C127.329 15.152 128.869 15.6373 129.989 16.608C131.128 17.5787 131.781 18.8667 131.949 20.472H127.525C127.451 19.9307 127.208 19.5013 126.797 19.184C126.405 18.8667 125.883 18.708 125.229 18.708C124.669 18.708 124.24 18.82 123.941 19.044C123.643 19.2493 123.493 19.5387 123.493 19.912C123.493 20.36 123.727 20.696 124.193 20.92C124.679 21.144 125.425 21.368 126.433 21.592C127.591 21.8907 128.533 22.1893 129.261 22.488C129.989 22.768 130.624 23.2347 131.165 23.888C131.725 24.5227 132.015 25.3813 132.033 26.464C132.033 27.3787 131.772 28.2 131.249 28.928C130.745 29.6373 130.008 30.1973 129.037 30.608C128.085 31.0187 126.975 31.224 125.705 31.224ZM149.691 22.936C149.691 23.384 149.663 23.8507 149.607 24.336H138.771C138.845 25.3067 139.153 26.0533 139.695 26.576C140.255 27.08 140.936 27.332 141.739 27.332C142.933 27.332 143.764 26.828 144.231 25.82H149.327C149.065 26.8467 148.589 27.7707 147.899 28.592C147.227 29.4133 146.377 30.0573 145.351 30.524C144.324 30.9907 143.176 31.224 141.907 31.224C140.376 31.224 139.013 30.8973 137.819 30.244C136.624 29.5907 135.691 28.6573 135.019 27.444C134.347 26.2307 134.011 24.812 134.011 23.188C134.011 21.564 134.337 20.1453 134.991 18.932C135.663 17.7187 136.596 16.7853 137.791 16.132C138.985 15.4787 140.357 15.152 141.907 15.152C143.419 15.152 144.763 15.4693 145.939 16.104C147.115 16.7387 148.029 17.644 148.683 18.82C149.355 19.996 149.691 21.368 149.691 22.936ZM144.791 21.676C144.791 20.8547 144.511 20.2013 143.951 19.716C143.391 19.2307 142.691 18.988 141.851 18.988C141.048 18.988 140.367 19.2213 139.807 19.688C139.265 20.1547 138.929 20.8173 138.799 21.676H144.791ZM154.456 31.224C153.616 31.224 152.926 30.9813 152.384 30.496C151.862 29.992 151.6 29.376 151.6 28.648C151.6 27.9013 151.862 27.276 152.384 26.772C152.926 26.268 153.616 26.016 154.456 26.016C155.278 26.016 155.95 26.268 156.472 26.772C157.014 27.276 157.284 27.9013 157.284 28.648C157.284 29.376 157.014 29.992 156.472 30.496C155.95 30.9813 155.278 31.224 154.456 31.224Z" fill="white"/>
</svg>
