<svg width="160" height="42" viewBox="0 0 160 42" fill="none" xmlns="http://www.w3.org/2000/svg">
<path d="M22.5246 33.1116C22.5606 29.4402 21.6298 26.4546 20.4458 26.443C19.2617 26.4314 18.2727 29.3983 18.2369 33.0697C18.201 36.7411 19.1318 39.7268 20.3158 39.7383C21.4998 39.7499 22.4888 36.783 22.5246 33.1116Z" fill="#FED700"/>
<path d="M15.6576 32.2777C17.6728 29.2086 18.5041 26.1937 17.5144 25.5438C16.5245 24.8939 14.0884 26.855 12.0732 29.9241C10.058 32.9933 9.22669 36.0081 10.2164 36.6581C11.2063 37.308 13.6423 35.3469 15.6576 32.2777Z" fill="#FED700"/>
<path d="M10.3233 27.8744C13.6781 26.3822 16.0074 24.2955 15.5261 23.2136C15.0449 22.1317 11.9353 22.4643 8.58062 23.9565C5.22593 25.4487 2.89655 27.5354 3.37779 28.6174C3.85902 29.6993 6.96865 29.3666 10.3233 27.8744Z" fill="#FED700"/>
<path d="M15.1235 20.1796C15.3037 19.0093 12.5079 17.6078 8.87911 17.0492C5.25022 16.4907 2.16243 16.9867 1.9823 18.157C1.80217 19.3273 4.59791 20.7287 8.22678 21.2873C11.8556 21.8459 14.9434 21.3499 15.1235 20.1796Z" fill="#FED700"/>
<path d="M16.4264 17.3916C17.2106 16.5044 15.616 13.8141 12.8649 11.3826C10.1137 8.95121 7.24784 7.6994 6.4637 8.58665C5.67956 9.47392 7.27412 12.1642 10.0253 14.5957C12.7764 17.0271 15.6423 18.2789 16.4264 17.3916Z" fill="#FED700"/>
<path d="M19.0211 15.7623C20.1605 15.4399 20.2737 12.3145 19.274 8.78164C18.2743 5.24877 16.5402 2.64618 15.4009 2.96859C14.2615 3.29099 14.1483 6.41631 15.148 9.94921C16.1477 13.482 17.8818 16.0847 19.0211 15.7623Z" fill="#FED700"/>
<path d="M26.0667 10.0591C27.1359 6.54664 27.0844 3.4197 25.9516 3.07489C24.8188 2.73007 23.0338 5.29796 21.9646 8.81043C20.8954 12.3229 20.947 15.4498 22.0798 15.7946C23.2126 16.1394 24.9976 13.5716 26.0667 10.0591Z" fill="#FED700"/>
<path d="M31.1011 14.8052C33.8993 12.428 35.5462 9.76935 34.7795 8.86698C34.0128 7.96458 31.123 9.16015 28.3249 11.5373C25.5267 13.9145 23.8799 16.5731 24.6466 17.4755C25.4132 18.3779 28.3031 17.1824 31.1011 14.8052Z" fill="#FED700"/>
<path d="M32.7658 21.5215C36.405 21.0346 39.2278 19.6885 39.0707 18.5149C38.9138 17.3413 35.8363 16.7845 32.1971 17.2713C28.558 17.7582 25.7351 19.1043 25.8922 20.278C26.0492 21.4516 29.1266 22.0084 32.7658 21.5215Z" fill="#FED700"/>
<path d="M37.4603 28.9528C37.9628 27.8806 35.675 25.7484 32.3504 24.1903C29.0258 22.6322 25.9234 22.2384 25.4209 23.3106C24.9184 24.3828 27.2062 26.515 30.5308 28.0731C33.8554 29.6311 36.9579 30.025 37.4603 28.9528Z" fill="#FED700"/>
<path d="M30.4671 36.8639C31.4695 36.2337 30.6978 33.203 28.7435 30.0947C26.7892 26.9865 24.3922 24.9778 23.3898 25.608C22.3874 26.2382 23.1591 29.269 25.1134 32.3772C27.0678 35.4854 29.4647 37.4942 30.4671 36.8639Z" fill="#FED700"/>
<path d="M50.616 13.752C49.776 13.752 49.0853 13.5093 48.544 13.024C48.0213 12.52 47.76 11.904 47.76 11.176C47.76 10.4293 48.0213 9.81333 48.544 9.328C49.0853 8.824 49.776 8.572 50.616 8.572C51.4373 8.572 52.1093 8.824 52.632 9.328C53.1733 9.81333 53.444 10.4293 53.444 11.176C53.444 11.904 53.1733 12.52 52.632 13.024C52.1093 13.5093 51.4373 13.752 50.616 13.752ZM53.024 33.016C53.024 34.9387 52.5387 36.32 51.568 37.16C50.5973 38.0187 49.244 38.448 47.508 38.448H45.632V34.388H46.78C47.3027 34.388 47.676 34.2853 47.9 34.08C48.124 33.8747 48.236 33.5387 48.236 33.072V15.376H53.024V33.016ZM71.8945 15.376V31H67.1065V28.872C66.6211 29.5627 65.9585 30.1227 65.1185 30.552C64.2971 30.9627 63.3825 31.168 62.3745 31.168C61.1798 31.168 60.1251 30.9067 59.2105 30.384C58.2958 29.8427 57.5865 29.068 57.0825 28.06C56.5785 27.052 56.3265 25.8667 56.3265 24.504V15.376H61.0865V23.86C61.0865 24.9053 61.3571 25.7173 61.8985 26.296C62.4398 26.8747 63.1678 27.164 64.0825 27.164C65.0158 27.164 65.7531 26.8747 66.2945 26.296C66.8358 25.7173 67.1065 24.9053 67.1065 23.86V15.376H71.8945ZM80.1217 17.588C80.5697 16.86 81.2137 16.272 82.0537 15.824C82.8937 15.376 83.855 15.152 84.9377 15.152C86.2257 15.152 87.3923 15.4787 88.4377 16.132C89.483 16.7853 90.3043 17.7187 90.9017 18.932C91.5177 20.1453 91.8257 21.5547 91.8257 23.16C91.8257 24.7653 91.5177 26.184 90.9017 27.416C90.3043 28.6293 89.483 29.572 88.4377 30.244C87.3923 30.8973 86.2257 31.224 84.9377 31.224C83.8363 31.224 82.875 31.0093 82.0537 30.58C81.2323 30.132 80.5883 29.544 80.1217 28.816V31H75.3337V10.28H80.1217V17.588ZM86.9537 23.16C86.9537 21.9653 86.6177 21.032 85.9457 20.36C85.2923 19.6693 84.4803 19.324 83.5097 19.324C82.5577 19.324 81.7457 19.6693 81.0737 20.36C80.4203 21.0507 80.0937 21.9933 80.0937 23.188C80.0937 24.3827 80.4203 25.3253 81.0737 26.016C81.7457 26.7067 82.5577 27.052 83.5097 27.052C84.4617 27.052 85.2737 26.7067 85.9457 26.016C86.6177 25.3067 86.9537 24.3547 86.9537 23.16ZM109.066 22.936C109.066 23.384 109.038 23.8507 108.982 24.336H98.1456C98.2202 25.3067 98.5282 26.0533 99.0696 26.576C99.6296 27.08 100.311 27.332 101.114 27.332C102.308 27.332 103.139 26.828 103.606 25.82H108.702C108.44 26.8467 107.964 27.7707 107.274 28.592C106.602 29.4133 105.752 30.0573 104.726 30.524C103.699 30.9907 102.551 31.224 101.282 31.224C99.7509 31.224 98.3882 30.8973 97.1936 30.244C95.9989 29.5907 95.0656 28.6573 94.3936 27.444C93.7216 26.2307 93.3856 24.812 93.3856 23.188C93.3856 21.564 93.7122 20.1453 94.3656 18.932C95.0376 17.7187 95.9709 16.7853 97.1656 16.132C98.3602 15.4787 99.7322 15.152 101.282 15.152C102.794 15.152 104.138 15.4693 105.314 16.104C106.49 16.7387 107.404 17.644 108.058 18.82C108.73 19.996 109.066 21.368 109.066 22.936ZM104.166 21.676C104.166 20.8547 103.886 20.2013 103.326 19.716C102.766 19.2307 102.066 18.988 101.226 18.988C100.423 18.988 99.7416 19.2213 99.1816 19.688C98.6402 20.1547 98.3042 20.8173 98.1736 21.676H104.166ZM116.379 10.28V31H111.591V10.28H116.379ZM126.205 31.224C124.843 31.224 123.629 30.9907 122.565 30.524C121.501 30.0573 120.661 29.4227 120.045 28.62C119.429 27.7987 119.084 26.884 119.009 25.876H123.741C123.797 26.4173 124.049 26.856 124.497 27.192C124.945 27.528 125.496 27.696 126.149 27.696C126.747 27.696 127.204 27.584 127.521 27.36C127.857 27.1173 128.025 26.8093 128.025 26.436C128.025 25.988 127.792 25.6613 127.325 25.456C126.859 25.232 126.103 24.9893 125.057 24.728C123.937 24.4667 123.004 24.196 122.257 23.916C121.511 23.6173 120.867 23.16 120.325 22.544C119.784 21.9093 119.513 21.06 119.513 19.996C119.513 19.1 119.756 18.288 120.241 17.56C120.745 16.8133 121.473 16.2253 122.425 15.796C123.396 15.3667 124.544 15.152 125.869 15.152C127.829 15.152 129.369 15.6373 130.489 16.608C131.628 17.5787 132.281 18.8667 132.449 20.472H128.025C127.951 19.9307 127.708 19.5013 127.297 19.184C126.905 18.8667 126.383 18.708 125.729 18.708C125.169 18.708 124.74 18.82 124.441 19.044C124.143 19.2493 123.993 19.5387 123.993 19.912C123.993 20.36 124.227 20.696 124.693 20.92C125.179 21.144 125.925 21.368 126.933 21.592C128.091 21.8907 129.033 22.1893 129.761 22.488C130.489 22.768 131.124 23.2347 131.665 23.888C132.225 24.5227 132.515 25.3813 132.533 26.464C132.533 27.3787 132.272 28.2 131.749 28.928C131.245 29.6373 130.508 30.1973 129.537 30.608C128.585 31.0187 127.475 31.224 126.205 31.224ZM150.191 22.936C150.191 23.384 150.163 23.8507 150.107 24.336H139.271C139.345 25.3067 139.653 26.0533 140.195 26.576C140.755 27.08 141.436 27.332 142.239 27.332C143.433 27.332 144.264 26.828 144.731 25.82H149.827C149.565 26.8467 149.089 27.7707 148.399 28.592C147.727 29.4133 146.877 30.0573 145.851 30.524C144.824 30.9907 143.676 31.224 142.407 31.224C140.876 31.224 139.513 30.8973 138.319 30.244C137.124 29.5907 136.191 28.6573 135.519 27.444C134.847 26.2307 134.511 24.812 134.511 23.188C134.511 21.564 134.837 20.1453 135.491 18.932C136.163 17.7187 137.096 16.7853 138.291 16.132C139.485 15.4787 140.857 15.152 142.407 15.152C143.919 15.152 145.263 15.4693 146.439 16.104C147.615 16.7387 148.529 17.644 149.183 18.82C149.855 19.996 150.191 21.368 150.191 22.936ZM145.291 21.676C145.291 20.8547 145.011 20.2013 144.451 19.716C143.891 19.2307 143.191 18.988 142.351 18.988C141.548 18.988 140.867 19.2213 140.307 19.688C139.765 20.1547 139.429 20.8173 139.299 21.676H145.291ZM154.956 31.224C154.116 31.224 153.426 30.9813 152.884 30.496C152.362 29.992 152.1 29.376 152.1 28.648C152.1 27.9013 152.362 27.276 152.884 26.772C153.426 26.268 154.116 26.016 154.956 26.016C155.778 26.016 156.45 26.268 156.972 26.772C157.514 27.276 157.784 27.9013 157.784 28.648C157.784 29.376 157.514 29.992 156.972 30.496C156.45 30.9813 155.778 31.224 154.956 31.224Z" fill="#080C2E"/>
</svg>
